<svg xmlns="http://www.w3.org/2000/svg" viewBox="0 0 64 64" fill="none">
  <defs>
    <linearGradient id="gg" x1="0" y1="0" x2="64" y2="64" gradientUnits="userSpaceOnUse">
      <stop offset="0%" stop-color="#88ee88"/>
      <stop offset="100%" stop-color="#339933"/>
    </linearGradient>
  </defs>
  <rect width="64" height="64" rx="14" fill="#1a1a2e"/>
  <!-- Chess knight -->
  <path d="M22 48h20v-3H22v3zm2-5h16l1-4c0-4-2-7-5-9l1-6c0-1-.5-2-1.5-2h-1l1-3c.3-1-.2-2-1-2.5-.8-.5-1.8-.3-2.4.4L27 28c-2 2.5-3 5-3 8l0 7z" fill="url(#gg)" opacity="0.9"/>
  <!-- Eye -->
  <circle cx="33" cy="24" r="1.5" fill="#1a1a2e" opacity="0.7"/>
  <!-- Board squares hint -->
  <rect x="18" y="50" width="6" height="3" fill="url(#gg)" opacity="0.3"/>
  <rect x="30" y="50" width="6" height="3" fill="url(#gg)" opacity="0.3"/>
  <rect x="42" y="50" width="4" height="3" fill="url(#gg)" opacity="0.3"/>
  <rect x="24" y="53" width="6" height="3" fill="url(#gg)" opacity="0.3"/>
  <rect x="36" y="53" width="6" height="3" fill="url(#gg)" opacity="0.3"/>
</svg>
