<svg xmlns="http://www.w3.org/2000/svg" viewBox="0 0 64 64" fill="none">
  <defs>
    <linearGradient id="tg" x1="0" y1="0" x2="64" y2="64" gradientUnits="userSpaceOnUse">
      <stop offset="0%" stop-color="#c8a0ff"/>
      <stop offset="100%" stop-color="#8040e0"/>
    </linearGradient>
  </defs>
  <rect width="64" height="64" rx="14" fill="#1a1a2e"/>
  <!-- Wrench -->
  <path d="M42.5 15.5a9 9 0 0 0-12.2 2.3l-1.6 2.2-10.4 10.4a5 5 0 0 0 7.07 7.07L35.8 27l2.2-1.6a9 9 0 0 0 4.5-9.9z" fill="url(#tg)" opacity="0.85"/>
  <!-- Gear -->
  <path d="M40 36h-3l-.7-1.7 2.1-2.1-2.8-2.8-2.1 2.1L32 30.8V28h-4v2.8l-1.7.7-2.1-2.1-2.8 2.8 2.1 2.1-.7 1.7h-3v4h3l.7 1.7-2.1 2.1 2.8 2.8 2.1-2.1 1.7.7V48h4v-3l1.7-.7 2.1 2.1 2.8-2.8-2.1-2.1.7-1.7h3v-4z" fill="url(#tg)" opacity="0.6"/>
  <circle cx="30" cy="38" r="3" fill="#1a1a2e" opacity="0.5"/>
</svg>
